<?xml version="1.0" encoding="UTF-8"?>
<svg id="Layer_1" xmlns="http://www.w3.org/2000/svg" version="1.1" viewBox="0 0 455.6 114.7">
  <!-- Generator: Adobe Illustrator 29.3.1, SVG Export Plug-In . SVG Version: 2.1.0 Build 151)  -->
  <path d="M45.8,45.7c-2,.9-6.8,7.5-8.2,7.5l-4.5-4-4.5,4.5-4.6-4.5-3.9,2.8-9.8-2.8c-.6-.7,4.5-4.9,5.3-5.5,6.8-5.4,15.2-9.8,23.7-5.5v-5.5s-6.5,0-6.5,0v-6.5c-1.1,0-2.6.3-3.5-.2s-4.9-8.2-6.5-9.7c14.5-.6,32.6,4.6,26.5,23h-8.5l3.2,3c.8,1.1,1.5,2,1.8,3.5,1.1-.5,2.1-.7,3,.2s3.4,6.4,4.1,7.9c3.1,7.1,5.4,15.2,6.4,22.8l6.2-8.5c2.9-2,8.7-11.7,9.3-3.5,4-2.8,11.6-1.5,15.2,1.5s7.3,11.8,7.3,16.2v8.3c-1.7-1.5-9.7-5.6-10-7.3s0-1.5,0-2.3l-6-.2-.5-6.3h-6c-.2-3.3.2-6.7,0-10-2,1.4-4.2,10.3-4.8,13-1.1,5.3-1.2,10.6-1.7,16h31.8c.9,0,1.2,2.5-.3,3.3H21.2c-1.9-.4-1.5-3.3-.6-3.3h27.2c.3-2.6.9-5.6,1-8.2.7-13.1-.5-26.9-3-39.8ZM42.8,35.7h3.2c1.3-.5.9-4.4.7-5.6-1.2-7-10.8-9.7-16.9-9.9,1.3,3.3,3.5,2.5,6.5,2.5v6.5s6.5,0,6.5,0v6.5ZM17.3,47.7c3,1.1,4.3-2,6.7-3l4.5,4,4.9-4.5,4.5,3.9,3.3-3.6c-5.8-7.7-16.9-3.9-22.8,1.6s-1.4.5-1.1,1.6ZM58.3,93.7c-.9-9.5-2.5-18.9-5.1-28.1s-.6-2.9-1.4-3.4c1.3,10.5.6,21,0,31.5h6.5ZM93.8,83.7c-1.2-8.6-4.7-19-15.4-16.4v3.9c0,0,6.4,0,6.4,0v6s6,.2,6,.2c1.3,2.6-1.1,5.7,3,6.3ZM64.8,93.7c.6-7.4.9-14.8,3-22l-7.2,10.4,1.2,11.6h3Z"/>
  <path d="M275.2,27.3c21.3-1.8,36.6,21.3,26.9,40.4-9.4,18.5-35.9,20.5-47.7,3.1-12.2-18-.5-41.7,20.8-43.5ZM273.2,30.3c-29.9,4-26.3,51.4,5.4,49.9,33.8-1.7,30-54.6-5.4-49.9Z"/>
  <path d="M409.7,27.3c21.3-1.8,36.6,21.3,26.9,40.4-9.4,18.5-35.9,20.5-47.7,3.1-12.1-17.9-.6-41.7,20.8-43.5ZM407.7,30.3c-28.2,3.8-27.5,47.7,2.4,49.8,35.6,2.5,35-54.9-2.4-49.8Z"/>
  <path d="M201.7,27.3c36.4-3.1,40.5,52.4,5.3,55.3-37.8,3.2-41.6-52.2-5.3-55.3ZM200.2,30.3c-30.5,3.7-26.7,52,5.4,49.8,33.2-2.2,29.9-54.1-5.4-49.8Z"/>
  <path d="M312.3,27.2c2.6-.5,4.8,1.5,6.7,3,6.2,4.7,11,11,14.8,17.7l3.9,8.8v-29.5h2.5v55.5h-2.5c.3-9.6-.5-19.2-4-28.3-3.7-9.6-10.6-18-19-23.7v52h-2.5V27.2Z"/>
  <path d="M96.3,39.7c.3.3-1.7,5.5-2.1,5.9-1.6,1.5-6.3.5-5.9,5.1,3.7-1.3,6.4-1.4,10,.3s9.5,6.4,8.5,7.7c-2,.2-4.3,2.4-6,2.8s-4.2-2.1-6.8,1c-3.7-2.5-4.1-1.7-7.5.6-2.6-2.4-7.5-4.2-3.5-7.9l4.3-4c-3.8-.9-3.8,2.3-6.4,3.9h-6.1c-1.6-14,9.2-18.7,21.5-15.4ZM90.8,42.7c-6.3-1.4-12.6,1.9-12.5,9,1.4,1.4,3.7-3.7,4.1-3.9.7-.4,2,.2,2.9-.3s.7-2.3,1.5-3,3.3-.7,4-1.8ZM101.3,57.7c-4.4-5-11.9-6.6-15.5.2,1.6,1.8,2.9-1.5,4.3-1.6s2.6,1.6,3.6,1.7,1.8-1.3,2.9-1.4,3.1,1.4,4.7,1Z"/>
  <path d="M168.8,80.7c-8.9,3.2-20,3-27.8-3-26.6-20.5-2.7-61.1,27.7-47.7-2.1,3.3-5.1.6-8.2.3-38-3.9-36.7,55.9,1.9,49.3,2.7-.5,5.5-2.8,6.4,1.1Z"/>
  <path d="M100.3,100.2l.3,2.5-1.1.9H22c-3.2-.3-2-3.4-1.7-3.4h80Z"/>
  <path d="M53.6,42.2c-6.3-13.9,3.9-20.9,16.6-22.4s5,.3,7.4-.6c.6,0,.2,1.1,0,1.5-.4,1-4,8-4.5,8.5-1.1,1-3.3.3-4.8.5v6s-6,0-6,0v6.5s-8.7,0-8.7,0ZM72.3,23.2c-8.9.6-20,4.4-16.4,15.4h2.4c0,0,0-6.4,0-6.4h6.5s.2-6,.2-6c2.9-1.3,5.9,1,7.3-3Z"/>
  <path d="M42.8,54.7v10h-6.5s0,6.5,0,6.5h-6.5c0,1.1.3,2.6-.2,3.5s-8.5,5.8-9,6c-1.2.4-.8-2.9-.8-3.8.6-14.1,6.5-27.3,23-22.2ZM39.3,57.8c-10.6-3.2-15,7.8-15.4,16.4,3.3-1.3,2.5-3.5,2.5-6.5h6.5s0-6.5,0-6.5h6.5s0-3.4,0-3.4Z"/>
  <path d="M376.8,27.2v47.2c0,.2-.8,2.5-1.1,2.9-3,6.9-12,8.4-17.7,3.8-.1-4.8,3-.7,5.2-.2s6,0,8.3-2.3,2.2-3,2.2-3.8V27.2h3Z"/>
  <polygon points="249.8 27.2 249.8 30.2 241.8 30.2 241.8 82.7 239.3 82.7 239.3 30.2 231.3 30.2 231.3 27.2 249.8 27.2"/>
  <path d="M74.8,58.7c-1.8-.2-4.5.4-6.1-.1s-2.5-2.9-3.7-3.3-3.1.3-4.2-.3-.7-2.3-1.8-2.7-3.2.4-4.7.4l-1.8-7.5c11.7-7.5,21,1.7,22.3,13.5ZM70.3,54.7c-2.3-5.1-4.4-9.2-10.8-8.5s-3.5.8-2.5,2.5l4.2-.3c1.8,4.7,2,2.5,5.1,3.4s3.1,3.6,3.8,2.9Z"/>
  <path d="M91.7,6.8c16-2.7,15.7,20.7,1.4,19.3s-11.1-17.7-1.4-19.3ZM92.7,10.3c-7.1,1.5-5.9,12.9,1.8,12.4s7.2-14.2-1.8-12.4Z"/>
  <rect x="347.8" y="27.2" width="2.5" height="55.5"/>
</svg>