<?xml version="1.0" encoding="utf-8"?>
<!-- Generator: Adobe Illustrator 19.2.0, SVG Export Plug-In . SVG Version: 6.00 Build 0)  -->
<svg version="1.1" id="Layer_1" xmlns="http://www.w3.org/2000/svg" xmlns:xlink="http://www.w3.org/1999/xlink" x="0px" y="0px"
	 viewBox="0 0 960 960" style="enable-background:new 0 0 960 960;" xml:space="preserve">
<style type="text/css">
	.st0{fill:#FFFFFF;}
	.st1{fill:#0076AE;}
	.st2{fill:#066489;}
	.st3{fill:#0A4C60;}
	.st4{clip-path:url(#SVGID_2_);fill:#37AA37;}
	.st5{clip-path:url(#SVGID_4_);fill:#1F871F;}
	.st6{clip-path:url(#SVGID_6_);fill:#37AA37;}
	.st7{clip-path:url(#SVGID_8_);fill:#1F871F;}
	.st8{clip-path:url(#SVGID_10_);}
	.st9{fill:none;stroke:#F8DF88;stroke-width:6.5201;stroke-linecap:round;stroke-miterlimit:10;}
	.st10{fill:none;stroke:#F8DF88;stroke-width:6.5201;stroke-linecap:round;stroke-miterlimit:10;stroke-dasharray:16.3184,16.3184;}
	
		.st11{clip-path:url(#SVGID_12_);fill:none;stroke:#F8DF88;stroke-width:6.5201;stroke-linecap:round;stroke-miterlimit:10;stroke-dasharray:16.3001;}
	.st12{fill:#CC333F;}
</style>
<g id="Layer_1_1_">
	<g>
		<polygon class="st0" points="362.4,744.2 137.1,705.1 137.1,234 362.4,273.1 		"/>
		<polygon class="st0" points="597.6,711.6 362.4,744.2 362.4,273.1 597.6,240.5 		"/>
		<polygon class="st0" points="822.9,747.5 597.6,711.6 597.6,240.5 822.9,276.4 		"/>
		<polygon class="st1" points="362.4,708.7 172.1,676.1 172.1,276 362.4,308.6 		"/>
		<polygon class="st2" points="597.6,676.1 362.4,708.7 362.4,308.6 597.6,276 		"/>
		<polygon class="st3" points="787.9,708.7 597.6,676.1 597.6,276 787.9,308.6 		"/>
		<g>
			<g>
				<defs>
					<polygon id="SVGID_1_" points="597.6,276 362.4,308.6 172.1,276 172.1,676.1 362.4,708.7 597.6,676.1 787.9,708.7 787.9,308.6 
											"/>
				</defs>
				<clipPath id="SVGID_2_">
					<use xlink:href="#SVGID_1_"  style="overflow:visible;"/>
				</clipPath>
				<path class="st4" d="M224,471.1c-2.5,1.1-5,2.4-6.7,4.6c-3.3,4.5-1.3,11.4,3.1,15c4.3,3.6,10.2,4.7,15.7,5.4
					c4,0.5,8.7,1.2,10.7,4.8c3.1,5.5-2.8,11.7-4,17.9c-1.4,7.5,4.4,14.9,3,22.4c-0.8,4.4-4.2,8.4-3.9,12.9c0.4,5.5,5.7,9,10,12.4
					s8.2,9.5,5,14c-2,2.8-6.3,4.1-6.7,7.5c-0.2,1.8,0.9,3.5,2.1,4.9c13.6,16.2,38.7,12.9,59.5,16.7c5.3,1,10.7,2.6,14.4,6.5
					c8.9,9.4,2.7,25.7,8.6,37.2c2.2,4.4,6.1,7.8,8.5,12.1c8.8,15.6-4,35.6,0.8,52.8c1,3.6,3,7.3,6.4,8.8c6.3,2.8,13.4-3.3,15.3-10
					c1.9-6.6,0.6-13.7,1.5-20.6c1.6-12.1,10-22.3,19.5-29.9c9.5-7.6,20.4-13.4,30-21c18.7-14.7,31.7-36.4,36.1-59.8
					c0.8-4,1.3-8.3,3.5-11.7c4.1-6.5,12.7-8.5,18-14.1c0.8-0.8,1.5-1.9,1.5-3c0-1-0.7-1.9-1.4-2.7c-11-13-29.6-19-46-14.8
					c-7.7,2-15,6-23,6.4c-15,0.8-28-14.2-27.2-28.8c0.5-9.3,7.3-14.3,1.5-22.8c-3.5-5.1-10.4-9.4-14.5-14.9
					c-18.3-25.1-44.1-26.3-73.8-24.7C268.3,455.8,245.2,461.4,224,471.1z"/>
			</g>
			<g>
				<defs>
					<polygon id="SVGID_3_" points="597.6,276 362.4,308.6 172.1,276 172.1,676.1 362.4,708.7 597.6,676.1 787.9,708.7 787.9,308.6 
											"/>
				</defs>
				<clipPath id="SVGID_4_">
					<use xlink:href="#SVGID_3_"  style="overflow:visible;"/>
				</clipPath>
				<path class="st5" d="M809.6,542c-32.6-10.1-68.2-10-100.7,0.2c-4.7,1.5-9.8,3.6-11.9,8.1c-2.1,4.5,1.9,11.3,6.5,9.7
					c0.2,6.2-7.8,8.8-14,9.5c-14.9,1.7-29.8,3.3-44.7,5c-5.3,3.9-3.1,13,2.4,16.5s12.6,3.2,19.1,2.8c17.3-1.2,34.7-2,52.1-2.6
					c10.5-0.3,32.9-5.2,41.7-0.5c-2.4,7.1-12.7,7.2-14.3,14.2c-0.7,3.2,1.6,6.6,4.5,8.1c3,1.5,6.4,1.7,9.8,1.8
					c10.9,0.4,21.7,0.7,32.6,1.1c1.3,0,2.8,0.2,3.7,1.1c1.3,1.4,0.7,3.9-0.8,5.1s-3.6,1.4-5.5,1.6c-12.1,0.9-24.4,0.1-36.2,3
					c-4.6,1.1-9.9,3.8-10.3,8.6c-0.2,3.2,2.1,6.3,5,7.8s6.2,1.8,9.5,2.1c18.2,1.4,33.2,0.9,50.5-3.5c18-4.6,36.1,0.6,37.9-23.4
					c1.5-20.4-0.9-41.1-7.1-60.6c-1.9-6-6.4-13.1-12.4-11.4"/>
			</g>
			<g>
				<defs>
					<polygon id="SVGID_5_" points="597.6,276 362.4,308.6 172.1,276 172.1,676.1 362.4,708.7 597.6,676.1 787.9,708.7 787.9,308.6 
											"/>
				</defs>
				<clipPath id="SVGID_6_">
					<use xlink:href="#SVGID_5_"  style="overflow:visible;"/>
				</clipPath>
				<path class="st6" d="M424.5,322.4c8.1,2.3,16.8,9.9,13.4,17.6c-1.4,3.2-4.6,5.3-7.2,7.7c-2.6,2.4-4.7,6.2-3.2,9.4
					c2.5,5.2,10.3,2.8,15.5,0.5c9-4,19-5.6,28.8-4.5c4.4,0.5,9.3,1.9,11.4,5.8c2.2,4.1,0.5,9.4,2.2,13.7c2,5.2,8.6,7.6,14.1,6.4
					s10-5,13.9-9c8.8-9.2,15.7-23.9,8.1-34.1c-12.4-16.8-30.4-10.7-29.4-37.5c0.6-13.8,4.9-30.7-8.2-40.5
					c-21.7-16.2-57.6,9.1-72.2,24.5C392.3,302.8,400.7,315.6,424.5,322.4z"/>
			</g>
			<g>
				<defs>
					<polygon id="SVGID_7_" points="597.6,276 362.4,308.6 172.1,276 172.1,676.1 362.4,708.7 597.6,676.1 787.9,708.7 787.9,308.6 
											"/>
				</defs>
				<clipPath id="SVGID_8_">
					<use xlink:href="#SVGID_7_"  style="overflow:visible;"/>
				</clipPath>
				<path class="st7" d="M428.5,539.4c-7.7,2-15,6-23,6.4c-15,0.8-28-14.2-27.2-28.8c0.5-9.3,7.3-14.3,1.5-22.8
					c-3.5-5.1-10.4-9.4-14.5-14.9c-0.9-1.3-1.9-2.5-2.9-3.7V723c1.5-1.8,2.7-3.9,3.3-6c1.9-6.6,0.6-13.7,1.5-20.6
					c1.6-12.1,10-22.3,19.5-29.9c9.5-7.6,20.4-13.4,30-21c18.7-14.7,31.7-36.4,36.1-59.8c0.8-4,1.3-8.3,3.5-11.7
					c4.1-6.5,12.7-8.5,18-14.1c0.8-0.8,1.5-1.9,1.5-3c0-1-0.7-1.9-1.4-2.7C463.6,541.2,445,535.2,428.5,539.4z"/>
			</g>
			<g>
				<defs>
					<polygon id="SVGID_9_" points="597.6,276 362.4,308.6 172.1,276 172.1,676.1 362.4,708.7 597.6,676.1 787.9,708.7 787.9,308.6 
											"/>
				</defs>
				<clipPath id="SVGID_10_">
					<use xlink:href="#SVGID_9_"  style="overflow:visible;"/>
				</clipPath>
				<g class="st8">
					<g>
						<line class="st9" x1="635.2" y1="433" x2="643.4" y2="433"/>
						<path class="st10" d="M659.7,433h26.4c22.8,0,41.3,18.5,41.3,41.3v0.9c0,22.8-18.5,41.3-41.3,41.3H489.4
							c-22.8,0-41.3-18.5-41.3-41.3v-40.9c0-22.8-18.5-41.3-41.3-41.3H188.4"/>
						<line class="st9" x1="180.2" y1="393" x2="172.1" y2="393"/>
					</g>
				</g>
			</g>
			<g>
				<defs>
					<polygon id="SVGID_11_" points="597.6,276 362.4,308.6 172.1,276 172.1,676.1 362.4,708.7 597.6,676.1 787.9,708.7 
						787.9,308.6 					"/>
				</defs>
				<clipPath id="SVGID_12_">
					<use xlink:href="#SVGID_11_"  style="overflow:visible;"/>
				</clipPath>
				<path class="st11" d="M407.7,656h152.1c20.9,0,37.8-16.9,37.8-37.8v-11.8c0-20.9-16.9-37.8-37.8-37.8l0,0
					c-20.9,0-37.8-16.9-37.8-37.8V418.2c0-20.9,16.9-37.8,37.8-37.8h241.9"/>
			</g>
		</g>
		<path class="st12" d="M618.4,212.5c-41.6,0-75.3,33.7-75.3,75.3c0,0,0,0.3,0,0.9c0.1,4.7,0.5,9.4,1.4,13.9
			c2.1,13.4,7.1,34.5,19.2,57.8c20.5,39.5,54.6,72.6,54.6,72.6s34.1-33,54.6-72.6c12.1-23.4,17.1-44.5,19.2-57.8
			c0.9-4.5,1.4-9.1,1.4-13.9c0-0.6,0-0.9,0-0.9C693.6,246.2,659.9,212.5,618.4,212.5z M618.4,331.6c-24.2,0-43.8-19.6-43.8-43.8
			c0-24.2,19.6-43.8,43.8-43.8s43.8,19.6,43.8,43.8C662.1,312,642.5,331.6,618.4,331.6z"/>
		<path class="st12" d="M309.7,374.3c-29.3,0-53.1,23.8-53.1,53.1c0,0,0,0.2,0,0.6c0,3.3,0.4,6.6,1,9.8c1.5,9.4,5,24.3,13.5,40.8
			c14.5,27.9,38.5,51.2,38.5,51.2s24.1-23.3,38.5-51.2c8.6-16.5,12.1-31.4,13.5-40.8c0.6-3.2,1-6.4,1-9.8c0-0.4,0-0.6,0-0.6
			C362.8,398.1,339,374.3,309.7,374.3z M309.7,458.3c-17.1,0-30.9-13.8-30.9-30.9s13.8-30.9,30.9-30.9s30.9,13.8,30.9,30.9
			S326.8,458.3,309.7,458.3z"/>
	</g>
</g>
</svg>
